# xmcd
#
# Track frame offsets:
#	150
#	11850
#	22675
#	32075
#	48975
#	59050
#	70100
#	82975
#	96025
#	110475
#	124413
#	143038
#	156125
#	173488
#	183225
#	196875
#	212150
#	223075
#	239000
#	255938
#
# Disc length: 3615 seconds
#
# Revision: 2
# Processed by: cddbd v1.5.1PL2 Copyright (c) Steve Scherf et al.
# Submitted via: dBpowerAMP V4.0
#
DISCID=140e1d14
DTITLE=Val Doonican - The Very Best Of Val Doonican
DYEAR=1900
DGENRE=Country
TTITLE0=Country Roads
TTITLE1=Walk Right Back
TTITLE2=Snowbird
TTITLE3=Killing Me Softly With Her Song
TTITLE4=Little Arrows
TTITLE5=Walkin' In The Sunshine
TTITLE6=Things
TTITLE7=Rose Garden
TTITLE8=Behind Closed Doors
TTITLE9=Crying Time
TTITLE10=Mississippi
TTITLE11=All I Ever Need Is You
TTITLE12=Loves Been Good To Me
TTITLE13=Annie's Song
TTITLE14=Can't Help Falling In Love
TTITLE15=El Paso
TTITLE16=Everybody's Talking
TTITLE17=Until It's Time For You To Go
TTITLE18=Leaving On A Jet Plane
TTITLE19=Little Green Apples
EXTD=
EXTT0=
EXTT1=
EXTT2=
EXTT3=
EXTT4=
EXTT5=
EXTT6=
EXTT7=
EXTT8=
EXTT9=
EXTT10=
EXTT11=
EXTT12=
EXTT13=
EXTT14=
EXTT15=
EXTT16=
EXTT17=
EXTT18=
EXTT19=
PLAYORDER=
